# xmcd
# 
# Track frame offsets:
#     182
#     26827
#     44807
#     56352
#     68605
#     86607
#     98017
#     108257
#     122095
#     136757
#     150195
#     171730
#     186160
#     201367
# 
# Disc length: 2831
# 
# Revision: 1
# Processed by: cddbd v1.5.2PL0 Copyright (c) Steve Scherf et al.
# Submitted via: fre:ac v1.0.31
# 
DISCID=bd0b0d0e
DTITLE=Roots of Rhythm - Cheek To Cheek
DYEAR=0
DGENRE=R&B
TTITLE0=Ella Fitzgerald and Louis Armstrong - Cheek To Cheek
TTITLE1=Billie Holiday - Always
TTITLE2=Ruby and the Romantics - Our Day Will Come
TTITLE3=Barbara Lewis - Hello Stranger
TTITLE4=Dionne Warwick and the Spinners - Then Came You
TTITLE5=Doris Troy - Just One Look
TTITLE6=Betty Everett - The Shoop Shoop Song (It's in His Kiss)
TTITLE7=Marvin Gaye and Tammi Terrel - Your Precious Love
TTITLE8=Aretha Franklin - Do Right Woman, Do Right Man
TTITLE9=Jackie Wilson - I Get the Sweetest Feeling
TTITLE10=The Stylistics - You Make Me Feel Brand New
TTITLE11=The Moonglows - Sincerly
TTITLE12=The Flamingos - I only have Eyes for You
TTITLE13=The Drifters - Save the Last Dance for Me
EXTD=
EXTT0=
EXTT1=
EXTT2=
EXTT3=
EXTT4=
EXTT5=
EXTT6=
EXTT7=
EXTT8=
EXTT9=
EXTT10=
EXTT11=
EXTT12=
EXTT13=
PLAYORDER=
